# Wavefront OBJ for Medieval Base Placeholder
# Dimensions: approx 16x32x16 Recoil world units, centered on (0, 0, 0)
# A simple stylized placeholder pawn geometry: base pedestal, torso, and head.
o base
v -8.0 0.0 -8.0
v 8.0 0.0 -8.0
v 8.0 0.0 8.0
v -8.0 0.0 8.0
v -8.0 6.0 -8.0
v 8.0 6.0 -8.0
v 8.0 6.0 8.0
v -8.0 6.0 8.0
vn 0.0 -1.0 0.0
vn 0.0 1.0 0.0
vn 0.0 0.0 -1.0
vn 1.0 0.0 0.0
vn 0.0 0.0 1.0
vn -1.0 0.0 0.0
f 1//1 2//1 3//1 4//1
f 5//2 8//2 7//2 6//2
f 1//3 5//3 6//3 2//3
f 2//4 6//4 7//4 3//4
f 3//5 7//5 8//5 4//5
f 4//6 8//6 5//6 1//6

o torso
v -6.0 6.0 -6.0
v 6.0 6.0 -6.0
v 6.0 6.0 6.0
v -6.0 6.0 6.0
v -5.0 22.0 -5.0
v 5.0 22.0 -5.0
v 5.0 22.0 5.0
v -5.0 22.0 5.0
f 9//1 10//1 11//1 12//1
f 13//2 16//2 15//2 14//2
f 9//3 13//3 14//3 10//3
f 10//4 14//4 15//4 11//4
f 11//5 15//5 16//5 12//5
f 12//6 16//6 13//6 9//6

o weapon_mount
v -2.0 14.0 6.0
v 2.0 14.0 6.0
v 2.0 14.0 16.0
v -2.0 14.0 16.0
v -2.0 18.0 6.0
v 2.0 18.0 6.0
v 2.0 18.0 16.0
v -2.0 18.0 16.0
f 17//1 18//1 19//1 20//1
f 21//2 24//2 23//2 22//2
f 17//3 21//3 22//3 18//3
f 18//4 22//4 23//4 19//4
f 19//5 23//5 24//5 20//5
f 20//6 24//6 21//6 17//6
